<?xml version="1.0" encoding="utf-8"?>
<!-- Generator: Adobe Illustrator 16.0.0, SVG Export Plug-In . SVG Version: 6.00 Build 0)  -->
<!DOCTYPE svg PUBLIC "-//W3C//DTD SVG 1.1//EN" "http://www.w3.org/Graphics/SVG/1.1/DTD/svg11.dtd">
<svg version="1.1" id="Layer_1" xmlns="http://www.w3.org/2000/svg" xmlns:xlink="http://www.w3.org/1999/xlink" x="0px" y="0px"
	 width="123px" height="74px" viewBox="0 0 123 74" enable-background="new 0 0 123 74" xml:space="preserve">
<g>
	<defs>
		<path id="SVGID_1_" d="M105.857,44.715c0.189-1.797,0.707-4.636,1.167-4.655c0.576-0.022-0.565,7.927-0.821,8.413
			c-0.019,0.035-0.036,0.052-0.054,0.052C105.92,48.524,105.75,45.728,105.857,44.715 M109.95,34.79
			c-0.348-0.616,1.962-4.885,2.27-5.578c0.309-0.692,2.271-2.578,2.964-2.347c0.693,0.231,0.333,2.732,0.077,3.526
			c-0.187,0.579-1.192,2.283-1.617,2.745c-0.423,0.461-1.395,0.359-1.848,0.461c-1.419,0.324-1.518,1.346-1.704,1.346
			C110.053,34.943,110.01,34.897,109.95,34.79 M98.518,19.826c-1.203,1.503-4.849,22.772-8.197,22.312
			c-3.217-0.442,1.636-20.928,1.578-21.813c-0.058-0.885-1.387-1.712-2.271-1.732c-0.886-0.019-3.105,1.432-3.965,2.001
			c-1.481,0.981-4.378,4.751-4.695,5.463c-0.271,0.606,0.173,1.847,0.539,2.116c0.364,0.269,1.713,0.365,2.001-0.404
			c0.357-0.951-0.366-1.308-0.038-2.02c0.327-0.712,4.195-5.655,5.234-4.847s-3.08,11.349-2.811,15.561
			c0.162,2.545,0.338,6.701,4.632,7.572c3.541,0.72,6.646-14.13,6.762-14.13c0.115,0,0.73,6.155,1.463,7.27
			c0.73,1.116,1.5,1.232,2.425,1.154c0.923-0.077,5.464-7.348,6.081-7.886c0.615-0.538,0.359,5.283,0,6.347
			c-0.359,1.064-2.899,6.81-2.926,9.964c-0.012,1.543,0.5,3.579,2.733,4.116c2.271-0.961,2.553-13.682,2.938-14.143
			c0.237-0.286,0.53-0.189,0.965-0.09c0.269,0.059,0.589,0.119,0.985,0.09c1.039-0.078,2.836-1.107,4.1-2.226
			c1.52-1.346,5.618-6.386,5.946-7.175c0.298-0.718,0.423-1.885-0.193-1.731c-0.615,0.154-3.81,5.194-4.503,5.425
			c-0.692,0.231,1.501-4.155,0.424-5.579c-0.49-0.647-1.193-1.115-3.041-0.73c-1.847,0.384-4.58,6.463-4.888,5.654
			c-0.308-0.807,0.115-2.192-0.27-2.808c-0.386-0.615-0.962-1.385-1.539-1.116c-0.578,0.27-5.813,10.427-7.082,10.003
			c-1.271-0.423,0.76-16.556,0.423-17.273c-0.199-0.423-0.502-0.592-0.845-0.592C99.827,18.579,99.023,19.194,98.518,19.826"/>
	</defs>
	<use xlink:href="#SVGID_1_"  overflow="visible" fill="#FFFFFF"/>
	<clipPath id="SVGID_2_">
		<use xlink:href="#SVGID_1_"  overflow="visible"/>
	</clipPath>
	<rect x="80.697" y="18.574" clip-path="url(#SVGID_2_)" fill="#FFFFFF" width="41.723" height="32.296"/>
</g>
<g>
	<defs>
		<polygon id="SVGID_3_" points="63.899,54.893 65.753,61.347 69.292,60.332 69.207,60.037 69.124,59.748 66.234,60.578 
			65.55,58.196 68.35,57.392 68.265,57.098 68.182,56.808 65.382,57.612 64.715,55.29 67.605,54.46 67.52,54.167 67.436,53.877 		
			"/>
	</defs>
	<use xlink:href="#SVGID_3_"  overflow="visible" fill="#FCFCFC"/>
	<clipPath id="SVGID_4_">
		<use xlink:href="#SVGID_3_"  overflow="visible"/>
	</clipPath>
	<rect x="63.899" y="53.877" clip-path="url(#SVGID_4_)" fill="#FCFCFC" width="5.393" height="7.47"/>
</g>
<g>
	<defs>
		<polygon id="SVGID_5_" points="68.02,53.71 68.105,54.003 68.188,54.294 69.667,53.869 71.354,59.739 71.678,59.646 
			72.003,59.553 70.315,53.683 71.793,53.258 71.71,52.964 71.627,52.675 		"/>
	</defs>
	<use xlink:href="#SVGID_5_"  overflow="visible" fill="#FCFCFC"/>
	<clipPath id="SVGID_6_">
		<use xlink:href="#SVGID_5_"  overflow="visible"/>
	</clipPath>
	<rect x="68.02" y="52.675" clip-path="url(#SVGID_6_)" fill="#FCFCFC" width="3.983" height="7.064"/>
</g>
<g>
	<defs>
		<path id="SVGID_7_" d="M75.098,52.405l2.151,2.647l-2.553,0.734L75.098,52.405z M74.922,51.728l-0.354,0.102l-0.92,7.252
			l0.341-0.098l0.34-0.099l0.288-2.443l3.033-0.87l1.545,1.917l0.354-0.103l0.355-0.102l-4.63-5.658L74.922,51.728z"/>
	</defs>
	<use xlink:href="#SVGID_7_"  overflow="visible" fill="#FCFCFC"/>
	<clipPath id="SVGID_8_">
		<use xlink:href="#SVGID_7_"  overflow="visible"/>
	</clipPath>
	<rect x="73.648" y="51.626" clip-path="url(#SVGID_8_)" fill="#FCFCFC" width="6.257" height="7.455"/>
</g>
<g>
	<defs>
		<polygon id="SVGID_9_" points="79.136,50.518 78.813,50.611 80.667,57.065 80.992,56.972 81.316,56.879 79.46,50.425 		"/>
	</defs>
	<use xlink:href="#SVGID_9_"  overflow="visible" fill="#FCFCFC"/>
	<clipPath id="SVGID_10_">
		<use xlink:href="#SVGID_9_"  overflow="visible"/>
	</clipPath>
	<rect x="78.813" y="50.425" clip-path="url(#SVGID_10_)" fill="#FCFCFC" width="2.503" height="6.641"/>
</g>
<g>
	<defs>
		<polygon id="SVGID_11_" points="85.142,48.793 84.819,48.887 86.674,55.341 86.998,55.249 87.322,55.155 85.467,48.7 		"/>
	</defs>
	<use xlink:href="#SVGID_11_"  overflow="visible" fill="#FCFCFC"/>
	<clipPath id="SVGID_12_">
		<use xlink:href="#SVGID_11_"  overflow="visible"/>
	</clipPath>
	<rect x="84.819" y="48.7" clip-path="url(#SVGID_12_)" fill="#FCFCFC" width="2.503" height="6.641"/>
</g>
<g>
	<defs>
		<polygon id="SVGID_13_" points="91.6,46.94 91.276,47.033 92.809,52.369 87.666,48.068 87.224,48.196 86.784,48.322 
			88.639,54.777 88.963,54.684 89.286,54.592 87.658,48.923 93.127,53.488 93.454,53.394 93.779,53.301 91.924,46.847 		"/>
	</defs>
	<use xlink:href="#SVGID_13_"  overflow="visible" fill="#FCFCFC"/>
	<clipPath id="SVGID_14_">
		<use xlink:href="#SVGID_13_"  overflow="visible"/>
	</clipPath>
	<rect x="86.784" y="46.847" clip-path="url(#SVGID_14_)" fill="#FCFCFC" width="6.995" height="7.931"/>
</g>
<g>
	<defs>
		<path id="SVGID_15_" d="M96.432,45.432c-0.985,0.283-1.728,0.846-2.223,1.689c-0.496,0.841-0.611,1.729-0.342,2.664
			c0.269,0.934,0.833,1.627,1.691,2.078c0.861,0.45,1.78,0.536,2.758,0.255c0.947-0.272,1.656-0.825,2.126-1.656
			c0.429-0.755,0.552-1.552,0.367-2.395l-4.362,1.253l0.167,0.58l3.601-1.034c-0.003,0.447-0.118,0.885-0.344,1.309
			c-0.366,0.685-0.926,1.136-1.683,1.354c-0.804,0.23-1.561,0.159-2.27-0.213c-0.709-0.373-1.174-0.946-1.396-1.72
			c-0.224-0.771-0.13-1.506,0.278-2.201c0.407-0.695,1.019-1.158,1.83-1.393c0.438-0.126,0.897-0.131,1.376-0.019
			c0.481,0.112,0.881,0.319,1.202,0.62l0.753-0.216c-0.39-0.46-0.918-0.779-1.583-0.959c-0.331-0.089-0.658-0.134-0.979-0.134
			C97.073,45.295,96.751,45.341,96.432,45.432"/>
	</defs>
	<use xlink:href="#SVGID_15_"  overflow="visible" fill="#FCFCFC"/>
	<clipPath id="SVGID_16_">
		<use xlink:href="#SVGID_15_"  overflow="visible"/>
	</clipPath>
	<rect x="93.598" y="45.295" clip-path="url(#SVGID_16_)" fill="#FCFCFC" width="7.396" height="7.104"/>
</g>
<g>
	<defs>
		<path id="SVGID_17_" d="M105.857,44.715c0.189-1.797,0.707-4.636,1.167-4.655c0.576-0.022-0.565,7.927-0.821,8.413
			c-0.019,0.035-0.036,0.052-0.054,0.052C105.92,48.524,105.75,45.728,105.857,44.715 M109.95,34.79
			c-0.348-0.616,1.962-4.885,2.27-5.578c0.309-0.692,2.271-2.578,2.964-2.347c0.693,0.231,0.333,2.732,0.077,3.526
			c-0.187,0.579-1.192,2.283-1.617,2.745c-0.423,0.461-1.395,0.359-1.848,0.461c-1.419,0.324-1.518,1.346-1.704,1.346
			C110.053,34.943,110.01,34.897,109.95,34.79 M98.518,19.826c-1.203,1.503-4.849,22.772-8.197,22.312
			c-3.217-0.442,1.636-20.928,1.578-21.813c-0.058-0.885-1.387-1.712-2.271-1.732c-0.886-0.019-3.105,1.432-3.965,2.001
			c-1.481,0.981-4.378,4.751-4.695,5.463c-0.271,0.606,0.173,1.847,0.539,2.116c0.364,0.269,1.713,0.365,2.001-0.404
			c0.357-0.951-0.366-1.308-0.038-2.02c0.327-0.712,4.195-5.655,5.234-4.847s-3.08,11.349-2.811,15.561
			c0.162,2.545,0.338,6.701,4.632,7.572c3.541,0.72,6.646-14.13,6.762-14.13c0.115,0,0.73,6.155,1.463,7.27
			c0.73,1.116,1.5,1.232,2.425,1.154c0.923-0.077,5.464-7.348,6.081-7.886c0.615-0.538,0.359,5.283,0,6.347
			c-0.359,1.064-2.899,6.81-2.926,9.964c-0.012,1.543,0.5,3.579,2.733,4.116c2.271-0.961,2.553-13.682,2.938-14.143
			c0.237-0.286,0.53-0.189,0.965-0.09c0.269,0.059,0.589,0.119,0.985,0.09c1.039-0.078,2.836-1.107,4.1-2.226
			c1.52-1.346,5.618-6.386,5.946-7.175c0.298-0.718,0.423-1.885-0.193-1.731c-0.615,0.154-3.81,5.194-4.503,5.425
			c-0.692,0.231,1.501-4.155,0.424-5.579c-0.49-0.647-1.193-1.115-3.041-0.73c-1.847,0.384-4.58,6.463-4.888,5.654
			c-0.308-0.807,0.115-2.192-0.27-2.808c-0.386-0.615-0.962-1.385-1.539-1.116c-0.578,0.27-5.813,10.427-7.082,10.003
			c-1.271-0.423,0.76-16.556,0.423-17.273c-0.199-0.423-0.502-0.592-0.845-0.592C99.827,18.579,99.023,19.194,98.518,19.826"/>
	</defs>
	<use xlink:href="#SVGID_17_"  overflow="visible" fill="#FFFFFF"/>
	<clipPath id="SVGID_18_">
		<use xlink:href="#SVGID_17_"  overflow="visible"/>
	</clipPath>
	<rect x="80.697" y="18.574" clip-path="url(#SVGID_18_)" fill="#FFFFFF" width="41.723" height="32.296"/>
</g>
<g>
	<defs>
		<polygon id="SVGID_19_" points="63.899,54.893 65.753,61.347 69.292,60.332 69.207,60.037 69.124,59.748 66.234,60.578 
			65.55,58.196 68.35,57.392 68.265,57.098 68.182,56.808 65.382,57.612 64.715,55.29 67.605,54.46 67.52,54.167 67.436,53.877 		
			"/>
	</defs>
	<use xlink:href="#SVGID_19_"  overflow="visible" fill="#FCFCFC"/>
	<clipPath id="SVGID_20_">
		<use xlink:href="#SVGID_19_"  overflow="visible"/>
	</clipPath>
	<rect x="63.899" y="53.877" clip-path="url(#SVGID_20_)" fill="#FCFCFC" width="5.393" height="7.47"/>
</g>
<g>
	<defs>
		<polygon id="SVGID_21_" points="68.02,53.71 68.105,54.003 68.188,54.294 69.667,53.869 71.354,59.739 71.678,59.646 
			72.003,59.553 70.315,53.683 71.793,53.258 71.71,52.964 71.627,52.675 		"/>
	</defs>
	<use xlink:href="#SVGID_21_"  overflow="visible" fill="#FCFCFC"/>
	<clipPath id="SVGID_22_">
		<use xlink:href="#SVGID_21_"  overflow="visible"/>
	</clipPath>
	<rect x="68.02" y="52.675" clip-path="url(#SVGID_22_)" fill="#FCFCFC" width="3.983" height="7.064"/>
</g>
<g>
	<defs>
		<path id="SVGID_23_" d="M75.098,52.405l2.151,2.647l-2.553,0.734L75.098,52.405z M74.922,51.728l-0.354,0.102l-0.92,7.252
			l0.341-0.098l0.34-0.099l0.288-2.443l3.033-0.87l1.545,1.917l0.354-0.103l0.355-0.102l-4.63-5.658L74.922,51.728z"/>
	</defs>
	<use xlink:href="#SVGID_23_"  overflow="visible" fill="#FCFCFC"/>
	<clipPath id="SVGID_24_">
		<use xlink:href="#SVGID_23_"  overflow="visible"/>
	</clipPath>
	<rect x="73.648" y="51.626" clip-path="url(#SVGID_24_)" fill="#FCFCFC" width="6.257" height="7.455"/>
</g>
<g>
	<defs>
		<polygon id="SVGID_25_" points="79.136,50.518 78.813,50.611 80.667,57.065 80.992,56.972 81.316,56.879 79.46,50.425 		"/>
	</defs>
	<use xlink:href="#SVGID_25_"  overflow="visible" fill="#FCFCFC"/>
	<clipPath id="SVGID_26_">
		<use xlink:href="#SVGID_25_"  overflow="visible"/>
	</clipPath>
	<rect x="78.813" y="50.425" clip-path="url(#SVGID_26_)" fill="#FCFCFC" width="2.503" height="6.641"/>
</g>
<g>
	<defs>
		<polygon id="SVGID_27_" points="85.142,48.793 84.819,48.887 86.674,55.341 86.998,55.249 87.322,55.155 85.467,48.7 		"/>
	</defs>
	<use xlink:href="#SVGID_27_"  overflow="visible" fill="#FCFCFC"/>
	<clipPath id="SVGID_28_">
		<use xlink:href="#SVGID_27_"  overflow="visible"/>
	</clipPath>
	<rect x="84.819" y="48.7" clip-path="url(#SVGID_28_)" fill="#FCFCFC" width="2.503" height="6.641"/>
</g>
<g>
	<defs>
		<polygon id="SVGID_29_" points="91.6,46.94 91.276,47.033 92.809,52.369 87.666,48.068 87.224,48.196 86.784,48.322 
			88.639,54.777 88.963,54.684 89.286,54.592 87.658,48.923 93.127,53.488 93.454,53.394 93.779,53.301 91.924,46.847 		"/>
	</defs>
	<use xlink:href="#SVGID_29_"  overflow="visible" fill="#FCFCFC"/>
	<clipPath id="SVGID_30_">
		<use xlink:href="#SVGID_29_"  overflow="visible"/>
	</clipPath>
	<rect x="86.784" y="46.847" clip-path="url(#SVGID_30_)" fill="#FCFCFC" width="6.995" height="7.931"/>
</g>
<g>
	<defs>
		<path id="SVGID_31_" d="M96.432,45.432c-0.985,0.283-1.728,0.846-2.223,1.689c-0.496,0.841-0.611,1.729-0.342,2.664
			c0.269,0.934,0.833,1.627,1.691,2.078c0.861,0.45,1.78,0.536,2.758,0.255c0.947-0.272,1.656-0.825,2.126-1.656
			c0.429-0.755,0.552-1.552,0.367-2.395l-4.362,1.253l0.167,0.58l3.601-1.034c-0.003,0.447-0.118,0.885-0.344,1.309
			c-0.366,0.685-0.926,1.136-1.683,1.354c-0.804,0.23-1.561,0.159-2.27-0.213c-0.709-0.373-1.174-0.946-1.396-1.72
			c-0.224-0.771-0.13-1.506,0.278-2.201c0.407-0.695,1.019-1.158,1.83-1.393c0.438-0.126,0.897-0.131,1.376-0.019
			c0.481,0.112,0.881,0.319,1.202,0.62l0.753-0.216c-0.39-0.46-0.918-0.779-1.583-0.959c-0.331-0.089-0.658-0.134-0.979-0.134
			C97.073,45.295,96.751,45.341,96.432,45.432"/>
	</defs>
	<use xlink:href="#SVGID_31_"  overflow="visible" fill="#FCFCFC"/>
	<clipPath id="SVGID_32_">
		<use xlink:href="#SVGID_31_"  overflow="visible"/>
	</clipPath>
	<rect x="93.598" y="45.295" clip-path="url(#SVGID_32_)" fill="#FCFCFC" width="7.396" height="7.104"/>
</g>
<g>
	<defs>
		<path id="SVGID_33_" d="M85.573,8.171l-4.5,1.807l-0.34-0.776c-0.044-0.101-0.161-0.147-0.263-0.103l-8.214,3.589
			c-0.101,0.045-0.147,0.162-0.103,0.262l0.227,0.52l-4.208,1.69c-0.725,0.291-1.077,1.114-0.784,1.838l2.176,5.412l20.023-8.043
			l-2.176-5.413c-0.221-0.551-0.751-0.886-1.312-0.886C85.925,8.068,85.746,8.101,85.573,8.171"/>
	</defs>
	<use xlink:href="#SVGID_33_"  overflow="visible" fill="#FFFFFF"/>
	<clipPath id="SVGID_34_">
		<use xlink:href="#SVGID_33_"  overflow="visible"/>
	</clipPath>
	<rect x="67.096" y="8.068" clip-path="url(#SVGID_34_)" fill="#FFFFFF" width="22.492" height="14.342"/>
</g>
<g>
	<defs>
		<polygon id="SVGID_35_" points="94.353,14.029 89.307,8.369 92.958,15.012 86.014,18.06 93.464,16.641 94.218,24.184 
			95.171,16.664 102.58,18.278 95.72,15.048 104.016,2.288 		"/>
	</defs>
	<use xlink:href="#SVGID_35_"  overflow="visible" fill="#FFFFFF"/>
	<clipPath id="SVGID_36_">
		<use xlink:href="#SVGID_35_"  overflow="visible"/>
	</clipPath>
	<rect x="86.014" y="2.288" clip-path="url(#SVGID_36_)" fill="#FFFFFF" width="18.002" height="21.896"/>
</g>
<g>
	<defs>
		<path id="SVGID_37_" d="M39.857,12.579l0.735,1.28c-5.111,0.849-7.068,4.205-8.378,9.676c-1.587,6.626-2.888,10.775-9.162,14.213
			c-2.358,1.292-6.104,3.521-7.047,3.896c-1.341,0.532-7.485,2.869-10.091,5.418c-2.401,2.351-6.619,7.152-4.926,10.118
			c0.719,1.261,4.046,1.112,7.308,0.964c3.083-0.14,6.106-0.278,6.817,0.768c2.938,4.328-11.361,12.515-10.508,13.811
			c1.783,2.707,9.368-4.963,12.01-8.601c1.878-1.395,5.125-4.729,5.529-4.595c0.678,0.226-0.272,5.28,0.872,4.976
			c1.155-0.307,5.715-10.454,6.954-10.073c1,0.308,1,6.815,3.04,6.367c1.779-0.391,7.07-9.886,7.583-9.694
			c0.513,0.192-0.097,6.354,1.192,7.078c1.492,0.838,3.714-1.904,5.603-4.648c1.671-2.427,3.081-4.853,3.494-4.803
			c0.854,0.47-2.338,5.114-0.307,6.926c0.521,0.466,2.204-2.042,3.881-4.549c1.697-2.535,3.39-5.072,3.868-4.531
			c0.948,1.078,1.205,5.438,3.566,5.693c2.359,0.258,6.324-6.932,4.771-7.643c-0.353-0.16-1.172,1.2-1.982,2.559
			c-0.767,1.29-1.526,2.581-1.865,2.571c-1.824-0.05-0.797-5.233-3.567-6.052c-1.358-0.345-4.346,3.762-5.267,5.084
			c-0.092,0.135-0.298,0.084-0.322-0.077c-0.136-0.955-0.66-2.983-2.674-2.725c-0.904,0.114-0.308,1.23-2,2.461
			c-1.236,0.898-5.03,7.527-5.774,6.771c-0.744-0.757,0.265-3.855-0.192-5.899c-0.211-0.945-0.712-1.044-1.553-1.051
			c-1.978-0.016-7.8,9.874-7.8,9.874c-0.423-0.615-0.347-1.23-0.616-4.501c-0.27-3.27-3.225-1.893-4.541-0.578
			c-1.36,1.36-3.657,5.926-3.657,5.926c-0.039-5.079,4.695-13.389,3.348-18.158c-0.304-1.079-1.385-2.309-2.386-0.538
			c-1.001,1.769-2.541,12.464-2.9,14.875c-0.226,1.518-2.792,4.068-4.662,5.748c0.593-1.808,0.445-3.372-1.136-4.813
			c-1.306-1.188-5.085-0.59-8.414,0.01c-2.853,0.514-5.376,1.026-5.724,0.414c-2.151-3.777,12.972-13.311,13.599-13.646
			c0.936-0.5,5.754-3.321,5.754-3.321c4.397-2.192,5.324-2.532,7.96-6.569c4.134-6.334,1.676-16.714,10.981-17.949l0.761,1.327
			l28.343-7.101l1.228,2.381l2.193-0.967l0.331,0.742l4.665-2.082l-0.327-0.734l2.302-1.02l-3.638-6.619c0,0-0.17-0.006-0.493-0.006
			C73.547,0.963,56.467,1.488,39.857,12.579"/>
	</defs>
	<use xlink:href="#SVGID_37_"  overflow="visible" fill="#FFFFFF"/>
	<clipPath id="SVGID_38_">
		<use xlink:href="#SVGID_37_"  overflow="visible"/>
	</clipPath>
	<rect x="-0.705" y="0.963" clip-path="url(#SVGID_38_)" fill="#FFFFFF" width="81.472" height="74.466"/>
</g>
<g>
	<defs>
		<path id="SVGID_39_" d="M41.54,40.388c-0.561,0.367-0.638,1.24-0.172,1.951c0.466,0.712,1.298,0.992,1.857,0.625
			c0.561-0.367,0.638-1.24,0.172-1.951c-0.326-0.499-0.833-0.786-1.3-0.786C41.898,40.227,41.707,40.279,41.54,40.388"/>
	</defs>
	<use xlink:href="#SVGID_39_"  overflow="visible" fill="#FFFFFF"/>
	<clipPath id="SVGID_40_">
		<use xlink:href="#SVGID_39_"  overflow="visible"/>
	</clipPath>
	<rect x="40.902" y="40.227" clip-path="url(#SVGID_40_)" fill="#FFFFFF" width="2.961" height="3.104"/>
</g>
<g>
	<defs>
		<path id="SVGID_41_" d="M70.479,43.658c-0.308-0.137,0.115-1.866,0.943-2.771c0.827-0.902,2.001-1.558,2.329-1.365
			c0.321,0.189-2.858,4.14-3.254,4.14C70.49,43.661,70.484,43.66,70.479,43.658 M69.505,40.675
			c-1.129,1.536-1.481,3.798-1.405,5.285c0.018,0.351-0.396,0.057-0.206,1.038c0.113,0.588,0.343,0.569,0.497,0.55
			c0.066-0.008,0.119-0.017,0.145,0.022c0.701,1.113,2.248,2.116,4.349,1.492c3.041-0.904,6.217-6.81,6.66-7.405
			c0.442-0.597-0.013-2.878-0.443-2.423c-0.692,0.729-4.91,7.187-6.889,8.06c-1.79,0.787-2.16-0.252-1.843-0.95
			c0.477-1.039,4.922-6.418,5.307-6.957c0.384-0.538-0.175-1.615-0.943-1.769c-0.043-0.009-0.094-0.014-0.149-0.014
			C73.632,37.604,70.865,38.823,69.505,40.675"/>
	</defs>
	<use xlink:href="#SVGID_41_"  overflow="visible" fill="#FFFFFF"/>
	<clipPath id="SVGID_42_">
		<use xlink:href="#SVGID_41_"  overflow="visible"/>
	</clipPath>
	<rect x="67.704" y="37.604" clip-path="url(#SVGID_42_)" fill="#FFFFFF" width="12.282" height="12.082"/>
</g>
<g>
	<defs>
		<path id="SVGID_43_" d="M105.857,44.715c0.189-1.797,0.707-4.636,1.167-4.655c0.576-0.022-0.565,7.927-0.821,8.413
			c-0.019,0.035-0.036,0.052-0.054,0.052C105.92,48.524,105.75,45.728,105.857,44.715 M109.95,34.79
			c-0.348-0.616,1.962-4.885,2.27-5.578c0.309-0.692,2.271-2.578,2.964-2.347c0.693,0.231,0.333,2.732,0.077,3.526
			c-0.187,0.579-1.192,2.283-1.617,2.745c-0.423,0.461-1.395,0.359-1.848,0.461c-1.419,0.324-1.518,1.346-1.704,1.346
			C110.053,34.943,110.01,34.897,109.95,34.79 M98.518,19.826c-1.203,1.503-4.849,22.772-8.197,22.312
			c-3.217-0.442,1.636-20.928,1.578-21.813c-0.058-0.885-1.387-1.712-2.271-1.732c-0.886-0.019-3.105,1.432-3.965,2.001
			c-1.481,0.981-4.378,4.751-4.695,5.463c-0.271,0.606,0.173,1.847,0.539,2.116c0.364,0.269,1.713,0.365,2.001-0.404
			c0.357-0.951-0.366-1.308-0.038-2.02c0.327-0.712,4.195-5.655,5.234-4.847s-3.08,11.349-2.811,15.561
			c0.162,2.545,0.338,6.701,4.632,7.572c3.541,0.72,6.646-14.13,6.762-14.13c0.115,0,0.73,6.155,1.463,7.27
			c0.73,1.116,1.5,1.232,2.425,1.154c0.923-0.077,5.464-7.348,6.081-7.886c0.615-0.538,0.359,5.283,0,6.347
			c-0.359,1.064-2.899,6.81-2.926,9.964c-0.012,1.543,0.5,3.579,2.733,4.116c2.271-0.961,2.553-13.682,2.938-14.143
			c0.237-0.286,0.53-0.189,0.965-0.09c0.269,0.059,0.589,0.119,0.985,0.09c1.039-0.078,2.836-1.107,4.1-2.226
			c1.52-1.346,5.618-6.386,5.946-7.175c0.298-0.718,0.423-1.885-0.193-1.731c-0.615,0.154-3.81,5.194-4.503,5.425
			c-0.692,0.231,1.501-4.155,0.424-5.579c-0.49-0.647-1.193-1.115-3.041-0.73c-1.847,0.384-4.58,6.463-4.888,5.654
			c-0.308-0.807,0.115-2.192-0.27-2.808c-0.386-0.615-0.962-1.385-1.539-1.116c-0.578,0.27-5.813,10.427-7.082,10.003
			c-1.271-0.423,0.76-16.556,0.423-17.273c-0.199-0.423-0.502-0.592-0.845-0.592C99.827,18.579,99.023,19.194,98.518,19.826"/>
	</defs>
	<use xlink:href="#SVGID_43_"  overflow="visible" fill="#FFFFFF"/>
	<clipPath id="SVGID_44_">
		<use xlink:href="#SVGID_43_"  overflow="visible"/>
	</clipPath>
	<rect x="80.697" y="18.574" clip-path="url(#SVGID_44_)" fill="#FFFFFF" width="41.723" height="32.296"/>
</g>
<g>
	<defs>
		<path id="SVGID_45_" d="M58.255,57.14l1.203-0.344c0.906-0.261,1.693-0.228,2.36,0.096c0.667,0.325,1.116,0.895,1.351,1.706
			c0.233,0.813,0.157,1.531-0.229,2.157c-0.386,0.626-1.025,1.067-1.917,1.324l-1.245,0.356L58.255,57.14z M59.291,56.216
			l-1.526,0.438l-0.324,0.092l1.855,6.456l0.324-0.095l1.569-0.45c1.07-0.308,1.845-0.855,2.324-1.644
			c0.481-0.788,0.58-1.673,0.296-2.654c-0.273-0.955-0.824-1.629-1.652-2.021c-0.462-0.22-0.964-0.329-1.505-0.329
			C60.223,56.01,59.77,56.079,59.291,56.216"/>
	</defs>
	<use xlink:href="#SVGID_45_"  overflow="visible" fill="#FCFCFC"/>
	<clipPath id="SVGID_46_">
		<use xlink:href="#SVGID_45_"  overflow="visible"/>
	</clipPath>
	<rect x="57.441" y="56.01" clip-path="url(#SVGID_46_)" fill="#FCFCFC" width="6.653" height="7.192"/>
</g>
<g>
	<defs>
		<polygon id="SVGID_47_" points="63.899,54.893 65.753,61.347 69.292,60.332 69.207,60.037 69.124,59.748 66.234,60.578 
			65.55,58.196 68.35,57.392 68.265,57.098 68.182,56.808 65.382,57.612 64.715,55.29 67.605,54.46 67.52,54.167 67.436,53.877 		
			"/>
	</defs>
	<use xlink:href="#SVGID_47_"  overflow="visible" fill="#FCFCFC"/>
	<clipPath id="SVGID_48_">
		<use xlink:href="#SVGID_47_"  overflow="visible"/>
	</clipPath>
	<rect x="63.899" y="53.877" clip-path="url(#SVGID_48_)" fill="#FCFCFC" width="5.393" height="7.47"/>
</g>
<g>
	<defs>
		<polygon id="SVGID_49_" points="68.02,53.71 68.105,54.003 68.188,54.294 69.667,53.869 71.354,59.739 71.678,59.646 
			72.003,59.553 70.315,53.683 71.793,53.258 71.71,52.964 71.627,52.675 		"/>
	</defs>
	<use xlink:href="#SVGID_49_"  overflow="visible" fill="#FCFCFC"/>
	<clipPath id="SVGID_50_">
		<use xlink:href="#SVGID_49_"  overflow="visible"/>
	</clipPath>
	<rect x="68.02" y="52.675" clip-path="url(#SVGID_50_)" fill="#FCFCFC" width="3.983" height="7.064"/>
</g>
<g>
	<defs>
		<path id="SVGID_51_" d="M75.098,52.405l2.151,2.647l-2.553,0.734L75.098,52.405z M74.922,51.728l-0.354,0.102l-0.92,7.252
			l0.341-0.098l0.34-0.099l0.288-2.443l3.033-0.87l1.545,1.917l0.354-0.103l0.355-0.102l-4.63-5.658L74.922,51.728z"/>
	</defs>
	<use xlink:href="#SVGID_51_"  overflow="visible" fill="#FCFCFC"/>
	<clipPath id="SVGID_52_">
		<use xlink:href="#SVGID_51_"  overflow="visible"/>
	</clipPath>
	<rect x="73.648" y="51.626" clip-path="url(#SVGID_52_)" fill="#FCFCFC" width="6.257" height="7.455"/>
</g>
<g>
	<defs>
		<polygon id="SVGID_53_" points="79.136,50.518 78.813,50.611 80.667,57.065 80.992,56.972 81.316,56.879 79.46,50.425 		"/>
	</defs>
	<use xlink:href="#SVGID_53_"  overflow="visible" fill="#FCFCFC"/>
	<clipPath id="SVGID_54_">
		<use xlink:href="#SVGID_53_"  overflow="visible"/>
	</clipPath>
	<rect x="78.813" y="50.425" clip-path="url(#SVGID_54_)" fill="#FCFCFC" width="2.503" height="6.641"/>
</g>
<g>
	<defs>
		<polygon id="SVGID_55_" points="81.162,49.937 80.837,50.029 82.693,56.483 86.009,55.531 85.924,55.238 85.84,54.949 
			83.173,55.714 81.485,49.843 		"/>
	</defs>
	<use xlink:href="#SVGID_55_"  overflow="visible" fill="#FCFCFC"/>
	<clipPath id="SVGID_56_">
		<use xlink:href="#SVGID_55_"  overflow="visible"/>
	</clipPath>
	<rect x="80.837" y="49.843" clip-path="url(#SVGID_56_)" fill="#FCFCFC" width="5.172" height="6.641"/>
</g>
<g>
	<defs>
		<polygon id="SVGID_57_" points="85.142,48.793 84.819,48.887 86.674,55.341 86.998,55.249 87.322,55.155 85.467,48.7 		"/>
	</defs>
	<use xlink:href="#SVGID_57_"  overflow="visible" fill="#FCFCFC"/>
	<clipPath id="SVGID_58_">
		<use xlink:href="#SVGID_57_"  overflow="visible"/>
	</clipPath>
	<rect x="84.819" y="48.7" clip-path="url(#SVGID_58_)" fill="#FCFCFC" width="2.503" height="6.641"/>
</g>
<g>
	<defs>
		<polygon id="SVGID_59_" points="91.6,46.94 91.276,47.033 92.809,52.369 87.666,48.068 87.224,48.196 86.784,48.322 
			88.639,54.777 88.963,54.684 89.286,54.592 87.658,48.923 93.127,53.488 93.454,53.394 93.779,53.301 91.924,46.847 		"/>
	</defs>
	<use xlink:href="#SVGID_59_"  overflow="visible" fill="#FCFCFC"/>
	<clipPath id="SVGID_60_">
		<use xlink:href="#SVGID_59_"  overflow="visible"/>
	</clipPath>
	<rect x="86.784" y="46.847" clip-path="url(#SVGID_60_)" fill="#FCFCFC" width="6.995" height="7.931"/>
</g>
<g>
	<defs>
		<path id="SVGID_61_" d="M96.432,45.432c-0.985,0.283-1.728,0.846-2.223,1.689c-0.496,0.841-0.611,1.729-0.342,2.664
			c0.269,0.934,0.833,1.627,1.691,2.078c0.861,0.45,1.78,0.536,2.758,0.255c0.947-0.272,1.656-0.825,2.126-1.656
			c0.429-0.755,0.552-1.552,0.367-2.395l-4.362,1.253l0.167,0.58l3.601-1.034c-0.003,0.447-0.118,0.885-0.344,1.309
			c-0.366,0.685-0.926,1.136-1.683,1.354c-0.804,0.23-1.561,0.159-2.27-0.213c-0.709-0.373-1.174-0.946-1.396-1.72
			c-0.224-0.771-0.13-1.506,0.278-2.201c0.407-0.695,1.019-1.158,1.83-1.393c0.438-0.126,0.897-0.131,1.376-0.019
			c0.481,0.112,0.881,0.319,1.202,0.62l0.753-0.216c-0.39-0.46-0.918-0.779-1.583-0.959c-0.331-0.089-0.658-0.134-0.979-0.134
			C97.073,45.295,96.751,45.341,96.432,45.432"/>
	</defs>
	<use xlink:href="#SVGID_61_"  overflow="visible" fill="#FCFCFC"/>
	<clipPath id="SVGID_62_">
		<use xlink:href="#SVGID_61_"  overflow="visible"/>
	</clipPath>
	<rect x="93.598" y="45.295" clip-path="url(#SVGID_62_)" fill="#FCFCFC" width="7.396" height="7.104"/>
</g>
</svg>
